<svg width="34" height="34" viewBox="0 0 34 34" fill="none" xmlns="http://www.w3.org/2000/svg">
<path d="M19.8333 13.6708V11.9708C20.6125 11.6402 21.4094 11.3923 22.224 11.227C23.0385 11.0618 23.8944 10.9791 24.7917 10.9791C25.4056 10.9791 26.0076 11.0263 26.5979 11.1208C27.1882 11.2152 27.7667 11.3333 28.3333 11.475V13.0333C27.7667 12.8208 27.1941 12.6614 26.6156 12.5552C26.0372 12.4489 25.4292 12.3958 24.7917 12.3958C23.8944 12.3958 23.0326 12.5079 22.2063 12.7323C21.3799 12.9566 20.5889 13.2694 19.8333 13.6708ZM19.8333 21.4625V19.727C20.6125 19.3965 21.4094 19.1545 22.224 19.001C23.0385 18.8475 23.8944 18.7708 24.7917 18.7708C25.4056 18.7708 26.0076 18.818 26.5979 18.9125C27.1882 19.0069 27.7667 19.125 28.3333 19.2666V20.825C27.7667 20.6125 27.1941 20.4531 26.6156 20.3468C26.0372 20.2406 25.4292 20.1875 24.7917 20.1875C23.8944 20.1875 23.0326 20.2937 22.2063 20.5062C21.3799 20.7187 20.5889 21.0375 19.8333 21.4625ZM19.8333 17.5666V15.8666C20.6125 15.5361 21.4094 15.2882 22.224 15.1229C23.0385 14.9576 23.8944 14.875 24.7917 14.875C25.4056 14.875 26.0076 14.9222 26.5979 15.0166C27.1882 15.1111 27.7667 15.2291 28.3333 15.3708V16.9291C27.7667 16.7166 27.1941 16.5573 26.6156 16.451C26.0372 16.3448 25.4292 16.2916 24.7917 16.2916C23.8944 16.2916 23.0326 16.4038 22.2063 16.6281C21.3799 16.8524 20.5889 17.1652 19.8333 17.5666ZM8.78334 23.375C10.0583 23.375 11.292 23.5225 12.4844 23.8177C13.6767 24.1128 14.8514 24.5555 16.0083 25.1458V10.0229C14.9458 9.31454 13.7948 8.76558 12.5552 8.376C11.3156 7.98642 10.0583 7.79163 8.78334 7.79163C7.88612 7.79163 7.0066 7.90378 6.1448 8.12808C5.28299 8.35239 4.41528 8.62982 3.54167 8.96038V24.3312C4.27362 24.0007 5.10591 23.7586 6.03855 23.6052C6.97119 23.4517 7.88612 23.375 8.78334 23.375ZM18.1333 25.1458C19.3139 24.5555 20.4708 24.1128 21.6042 23.8177C22.7375 23.5225 23.9417 23.375 25.2167 23.375C26.1139 23.375 27.0406 23.4458 27.9969 23.5875C28.9531 23.7291 29.7736 23.918 30.4583 24.1541V8.96038C29.6556 8.55899 28.8056 8.26385 27.9083 8.07496C27.0111 7.88607 26.1139 7.79163 25.2167 7.79163C23.9417 7.79163 22.708 7.98642 21.5156 8.376C20.3233 8.76558 19.1958 9.31454 18.1333 10.0229V25.1458ZM17.0708 28.3333C15.8667 27.4361 14.5563 26.7454 13.1396 26.2614C11.7229 25.7774 10.2708 25.5354 8.78334 25.5354C7.90973 25.5354 7.05973 25.6416 6.23334 25.8541C5.40695 26.0666 4.58056 26.3263 3.75417 26.6333C3.21112 26.893 2.68577 26.8576 2.17813 26.527C1.67049 26.1965 1.41667 25.7243 1.41667 25.1104V8.71246C1.41667 8.35829 1.49931 8.03364 1.66459 7.7385C1.82987 7.44336 2.07778 7.21315 2.40834 7.04788C3.40001 6.57565 4.43299 6.22739 5.5073 6.00308C6.5816 5.77878 7.67362 5.66663 8.78334 5.66663C10.2708 5.66663 11.717 5.86732 13.1219 6.26871C14.5267 6.6701 15.8431 7.28399 17.0708 8.11038C18.275 7.28399 19.5677 6.6701 20.949 6.26871C22.3302 5.86732 23.7528 5.66663 25.2167 5.66663C26.3264 5.66663 27.4125 5.77878 28.475 6.00308C29.5375 6.22739 30.5646 6.57565 31.5563 7.04788C31.8868 7.21315 32.1406 7.44336 32.3177 7.7385C32.4948 8.03364 32.5833 8.35829 32.5833 8.71246V25.1104C32.5833 25.7715 32.3177 26.2732 31.7865 26.6156C31.2552 26.9579 30.7299 26.9638 30.2104 26.6333C29.4076 26.3027 28.5931 26.0371 27.7667 25.8364C26.9403 25.6357 26.0903 25.5354 25.2167 25.5354C23.7292 25.5354 22.3007 25.7833 20.9313 26.2791C19.5618 26.775 18.275 27.4597 17.0708 28.3333Z" fill="url(#paint0_linear_14_365)"/>
<defs>
<linearGradient id="paint0_linear_14_365" x1="17" y1="5.66663" x2="17" y2="28.3333" gradientUnits="userSpaceOnUse">
<stop stop-color="#FF7A00"/>
<stop offset="1" stop-color="#FF4500"/>
</linearGradient>
</defs>
</svg>
