<svg width="32" height="24" viewBox="0 0 32 24" fill="none" xmlns="http://www.w3.org/2000/svg">
<path d="M18.8333 8.67079V6.97079C19.6125 6.64024 20.4094 6.39232 21.224 6.22704C22.0385 6.06177 22.8944 5.97913 23.7917 5.97913C24.4056 5.97913 25.0076 6.02635 25.5979 6.12079C26.1882 6.21524 26.7667 6.33329 27.3333 6.47496V8.03329C26.7667 7.82079 26.1941 7.66142 25.6156 7.55517C25.0372 7.44892 24.4292 7.39579 23.7917 7.39579C22.8944 7.39579 22.0326 7.50795 21.2063 7.73225C20.3799 7.95656 19.5889 8.2694 18.8333 8.67079ZM18.8333 16.4625V14.727C19.6125 14.3965 20.4094 14.1545 21.224 14.001C22.0385 13.8475 22.8944 13.7708 23.7917 13.7708C24.4056 13.7708 25.0076 13.818 25.5979 13.9125C26.1882 14.0069 26.7667 14.125 27.3333 14.2666V15.825C26.7667 15.6125 26.1941 15.4531 25.6156 15.3468C25.0372 15.2406 24.4292 15.1875 23.7917 15.1875C22.8944 15.1875 22.0326 15.2937 21.2063 15.5062C20.3799 15.7187 19.5889 16.0375 18.8333 16.4625ZM18.8333 12.5666V10.8666C19.6125 10.5361 20.4094 10.2882 21.224 10.1229C22.0385 9.9576 22.8944 9.87496 23.7917 9.87496C24.4056 9.87496 25.0076 9.92218 25.5979 10.0166C26.1882 10.1111 26.7667 10.2291 27.3333 10.3708V11.9291C26.7667 11.7166 26.1941 11.5573 25.6156 11.451C25.0372 11.3448 24.4292 11.2916 23.7917 11.2916C22.8944 11.2916 22.0326 11.4038 21.2063 11.6281C20.3799 11.8524 19.5889 12.1652 18.8333 12.5666ZM7.78334 18.375C9.05834 18.375 10.292 18.5225 11.4844 18.8177C12.6767 19.1128 13.8514 19.5555 15.0083 20.1458V5.02288C13.9458 4.31454 12.7948 3.76558 11.5552 3.376C10.3156 2.98642 9.05834 2.79163 7.78334 2.79163C6.88612 2.79163 6.0066 2.90378 5.1448 3.12808C4.28299 3.35239 3.41528 3.62982 2.54167 3.96038V19.3312C3.27362 19.0007 4.10591 18.7586 5.03855 18.6052C5.97119 18.4517 6.88612 18.375 7.78334 18.375ZM17.1333 20.1458C18.3139 19.5555 19.4708 19.1128 20.6042 18.8177C21.7375 18.5225 22.9417 18.375 24.2167 18.375C25.1139 18.375 26.0406 18.4458 26.9969 18.5875C27.9531 18.7291 28.7736 18.918 29.4583 19.1541V3.96038C28.6556 3.55899 27.8056 3.26385 26.9083 3.07496C26.0111 2.88607 25.1139 2.79163 24.2167 2.79163C22.9417 2.79163 21.708 2.98642 20.5156 3.376C19.3233 3.76558 18.1958 4.31454 17.1333 5.02288V20.1458ZM16.0708 23.3333C14.8667 22.4361 13.5563 21.7454 12.1396 21.2614C10.7229 20.7774 9.27084 20.5354 7.78334 20.5354C6.90973 20.5354 6.05973 20.6416 5.23334 20.8541C4.40695 21.0666 3.58056 21.3263 2.75417 21.6333C2.21112 21.893 1.68577 21.8576 1.17813 21.527C0.670491 21.1965 0.416672 20.7243 0.416672 20.1104V3.71246C0.416672 3.35829 0.499311 3.03364 0.664588 2.7385C0.829866 2.44336 1.07778 2.21315 1.40834 2.04788C2.40001 1.57565 3.43299 1.22739 4.5073 1.00308C5.5816 0.778779 6.67362 0.666626 7.78334 0.666626C9.27084 0.666626 10.717 0.867321 12.1219 1.26871C13.5267 1.6701 14.8431 2.28399 16.0708 3.11038C17.275 2.28399 18.5677 1.6701 19.949 1.26871C21.3302 0.867321 22.7528 0.666626 24.2167 0.666626C25.3264 0.666626 26.4125 0.778779 27.475 1.00308C28.5375 1.22739 29.5646 1.57565 30.5563 2.04788C30.8868 2.21315 31.1406 2.44336 31.3177 2.7385C31.4948 3.03364 31.5833 3.35829 31.5833 3.71246V20.1104C31.5833 20.7715 31.3177 21.2732 30.7865 21.6156C30.2552 21.9579 29.7299 21.9638 29.2104 21.6333C28.4076 21.3027 27.5931 21.0371 26.7667 20.8364C25.9403 20.6357 25.0903 20.5354 24.2167 20.5354C22.7292 20.5354 21.3007 20.7833 19.9313 21.2791C18.5618 21.775 17.275 22.4597 16.0708 23.3333Z" fill="url(#paint0_linear_14_366)"/>
<defs>
<linearGradient id="paint0_linear_14_366" x1="16" y1="0.666626" x2="16" y2="23.3333" gradientUnits="userSpaceOnUse">
<stop stop-color="#FF7A00"/>
<stop offset="1" stop-color="#FF4500"/>
</linearGradient>
</defs>
</svg>
